# xmcd CD database file
#
# Track frame offsets:
#	150
#	23557
#	44027
#
# Disc length: 896 seconds
#
# Revision: 0
# Processed by: cddbd v1.5.1PL2 Copyright (c) Steve Scherf et al.
# Submitted via: CDex 1.51
#
DISCID=1e037e03
DTITLE=HOUND　DOG - パワー・オブ・ラヴ
DYEAR=1994
DGENRE=Rock
TTITLE0=パワー・オブ・ラヴ
TTITLE1=ノー・サレンダー
TTITLE2=パワー・オブ・ラヴ（オリジナル・カラオケ）
EXTD=YEAR: 1994/7/25
EXTT0=
EXTT1=
EXTT2=
PLAYORDER=
